PathFileType	4	(x/y/z)	A01_PREF_T0017.trc
DataRate	CameraRate	NumFrames	NumMarkers	Units	OrigDataRate	OrigDataStartFrame	OrigNumFrames
240	240	4	48	mm	240	253	289
Frame#	Time	TOP_HEAD			R_AC			L_AC			R_ASIS			L_ASIS			R_PSIS			L_PSIS			SACRAL			L_IC			R_IC			L_GT			R_GT			R_LAT_KNEE			R_MED_KNEE			L_MED_KNEE			L_LAT_KNEE			R_TOE			L_TOE			R_1ST_MET			L_1ST_MET			L_5TH_MET			R_5TH_MET			R_LAT_ANK			R_MED_ANK			L_MED_ANK			L_LAT_ANK			L_HEEL_SUP			R_HEEL_SUP			L_HEEL_LAT			R_HEEL_LAT			L_HEEL_MED			R_HEEL_MED			R_SHANK_PROX_POST			R_SHANK_PROX_ANT			R_SHANK_DIST_ANT			R_SHANK_DIST_POST			R_THIGH_PROX_POST			R_THIGH_PROX_ANT			R_THIGH_DIST_ANT			R_THIGH_DIST_POST			L_SHANK_PROX_ANT			L_SHANK_PROX_POST			L_SHANK_DIST_POST			L_SHANK_DIST_ANT			L_THIGH_PROX_ANT			L_THIGH_PROX_POST			L_THIGH_DIST_POST			L_THIGH_DIST_ANT			
		X1	Y1	Z1	X2	Y2	Z2	X3	Y3	Z3	X4	Y4	Z4	X5	Y5	Z5	X6	Y6	Z6	X7	Y7	Z7	X8	Y8	Z8	X9	Y9	Z9	X10	Y10	Z10	X11	Y11	Z11	X12	Y12	Z12	X13	Y13	Z13	X14	Y14	Z14	X15	Y15	Z15	X16	Y16	Z16	X17	Y17	Z17	X18	Y18	Z18	X19	Y19	Z19	X20	Y20	Z20	X21	Y21	Z21	X22	Y22	Z22	X23	Y23	Z23	X24	Y24	Z24	X25	Y25	Z25	X26	Y26	Z26	X27	Y27	Z27	X28	Y28	Z28	X29	Y29	Z29	X30	Y30	Z30	X31	Y31	Z31	X32	Y32	Z32	X33	Y33	Z33	X34	Y34	Z34	X35	Y35	Z35	X36	Y36	Z36	X37	Y37	Z37	X38	Y38	Z38	X39	Y39	Z39	X40	Y40	Z40	X41	Y41	Z41	X42	Y42	Z42	X43	Y43	Z43	X44	Y44	Z44	X45	Y45	Z45	X46	Y46	Z46	X47	Y47	Z47	X48	Y48	Z48	

253	1.0536	866.9	1774.5	339.42	629.67	1582.9	571.04	598.98	1587.4	109.88	610.93	1115.7	542.87	626.29	1065.9	190.58	398.9	1126.4	405.92	414.46	1120.2	276.3	390.43	1094.1	338.53	593.58	1185.8	148.45	583.43	1220.4	552.85	576.58	985.4	143.89	538.15	1007.2	575.2	494.23	598.56	501.1	534.25	595.76	373.55	727.64	596.99	351.86	700.81	611.39	195.72	603.67	65.548	378.3	908.91	117.18	214.81	520.65	55.947	336.48	832.54	82.229	270.15	797.82	81.657	144.55	495.74	44.367	471.02	397.99	138.13	454.78	405.88	148.83	353.85	701.02	162.82	263.68	669.56	156.43	198.58	589.97	96.854	238.68	293.18	127.37	398.8	599.02	70.638	206.22	295.43	99.961	431.72	610.89	65.924	268.19	295.28	101.24	370.34	376.01	438.68	491.95	442.22	418.3	514.79	435.62	345.09	495.16	380.57	356.31	481.27	484.6	871.21	546.53	555.01	883.66	559.66	551.3	792.7	548.91	484.8	782.29	533.67	750.46	531.25	201.8	695.44	528.58	192.19	692.19	465.37	197.19	745.18	475.1	205.33	684.04	866.9	187.79	619.5	851.94	158.98	650.87	783.12	171.7	710.17	797.81	195.93
254	1.0578	871.82	1774.5	339.11	634.55	1583	570.85	603.73	1587.5	109.76	615.6	1115.8	542.69	631.74	1065.6	190.43	403.91	1126.5	405.25	419.74	1120.1	275.73	395.5	1094.2	337.9	598.83	1185.9	148.26	588.09	1220.7	552.52	582.04	985.1	143.72	542.37	1007.5	574.95	495.92	599.17	501.01	536.02	596.09	373.43	732.03	596.59	352.72	705.58	610.37	196.42	603.7	65.536	378.31	924.72	121.04	216.68	520.82	55.894	336.51	848.88	84.326	271.68	814.79	82.881	145.91	495.95	44.38	471.02	398.54	138.85	454.82	406.63	149.5	353.91	715.55	161.89	264.6	684.53	154.82	199.37	606.18	93.218	239.07	293.8	128.42	398.79	615.98	67.195	206.7	295.92	101.02	431.71	627.72	62.846	268.75	295.84	102.27	370.41	377.16	439.58	491.72	443.3	419.07	514.68	436.56	345.86	495.11	381.56	357.19	481.13	487.98	871.91	546.22	558.45	883.94	559.36	554.27	793.03	548.65	487.68	783.01	533.45	757.03	531.33	202.77	702.13	527.42	192.95	700.24	464.16	197.94	752.97	475.09	206.31	689.07	866.33	188.15	624.58	851.45	159.16	655.8	782.59	172.12	715.04	797.23	196.52
255	1.062	876.74	1774.4	338.8	639.44	1583.1	570.64	608.48	1587.5	109.64	620.29	1115.9	542.49	637.22	1065.3	190.27	408.93	1126.6	404.57	425.03	1120	275.16	400.58	1094.2	337.28	604.08	1185.9	148.07	592.75	1220.9	552.17	587.49	984.72	143.56	546.62	1007.8	574.7	497.63	599.76	500.9	537.81	596.4	373.3	736.42	596.13	353.56	710.35	609.28	197.11	603.73	65.524	378.31	940.29	125.02	218.61	520.99	55.834	336.54	865.01	86.589	273.29	831.56	84.283	147.35	496.16	44.398	471.02	399.1	139.57	454.83	407.37	150.15	353.94	729.96	161.1	265.6	699.39	153.37	200.24	622.3	89.82	239.56	294.42	129.47	398.77	632.85	64.008	207.28	296.41	102.07	431.69	644.45	60.023	269.43	296.39	103.3	370.48	378.34	440.47	491.48	444.4	419.83	514.55	437.51	346.62	495.03	382.57	358.06	480.98	491.39	872.58	545.92	561.92	884.19	559.06	557.26	793.33	548.39	490.59	783.7	533.24	763.55	531.38	203.75	708.79	526.25	193.72	708.25	462.97	198.7	760.71	475.07	207.29	694.09	865.67	188.48	629.64	850.88	159.32	660.7	781.98	172.51	719.9	796.55	197.08
256	1.0662	881.65	1774.2	338.49	644.33	1583.1	570.43	613.23	1587.4	109.51	625	1115.9	542.28	642.72	1064.8	190.09	413.98	1126.6	403.9	430.33	1119.7	274.59	405.68	1094.1	336.65	609.34	1185.9	147.88	597.43	1221	551.82	592.94	984.26	143.39	550.89	1008	574.44	499.37	600.32	500.78	539.6	596.69	373.15	740.82	595.61	354.39	715.12	608.15	197.78	603.76	65.511	378.32	955.59	129.1	220.59	521.16	55.769	336.56	880.91	89.007	274.97	848.1	85.852	148.87	496.37	44.42	471.01	399.65	140.28	454.83	408.12	150.79	353.96	744.24	160.46	266.67	714.13	152.08	201.18	638.33	86.661	240.15	295.04	130.51	398.73	649.59	61.073	207.96	296.9	103.12	431.65	661.06	57.451	270.21	296.95	104.33	370.53	379.53	441.34	491.23	445.52	420.57	514.41	438.47	347.36	494.94	383.59	358.91	480.82	494.83	873.22	545.62	565.43	884.41	558.77	560.28	793.6	548.12	493.52	784.37	533.03	770.02	531.39	204.71	715.43	525.05	194.5	716.23	461.79	199.47	768.4	475.04	208.29	699.1	864.94	188.76	634.7	850.22	159.47	665.6	781.29	172.88	724.74	795.79	197.6
